# xmcd
#
# Track frame offsets:
#	150
#	20415
#	38122
#	63442
#	80532
#	96773
#	120208
#	132846
#	144882
#	172047
#	195554
#	221443
#	249025
#	260196
#	275557
#	293765
#	307343
#
# Disc length: 4360 seconds
#
# Revision: 3
# Processed by: cddbd v1.5.2PL0 Copyright (c) Steve Scherf et al.
# Submitted via: audiograbber 1.83.01
#
DISCID=f3110611
DTITLE=Aretha Franklin - Rare and Unreleased Recordings From The Golden Reign Of 
DTITLE=The Queen Of Soul  [CD2)
DYEAR=2007
DGENRE=Oldies
TTITLE0=Rock Steady   
TTITLE1=I Need A Strong Man (The To-To Song)  
TTITLE2=Heavenly Father  
TTITLE3=Sweetest Smile And The Funkiest Style  
TTITLE4=This Is  
TTITLE5=Tree Of Life  
TTITLE6=Do You Know  
TTITLE7=Can You Love Again  
TTITLE8=I Want To Be With You  
TTITLE9=Suzanne  
TTITLE10=That's The Way I Feel About Cha  
TTITLE11=Ain't But The One  
TTITLE12=The Happy Blues  
TTITLE13=At Last  
TTITLE14=Love Letters  
TTITLE15=I'm In Love 
TTITLE16=Are You Leaving Me  
EXTD=
EXTT0=
EXTT1=
EXTT2=
EXTT3=
EXTT4=
EXTT5=
EXTT6=
EXTT7=
EXTT8=
EXTT9=
EXTT10=
EXTT11=
EXTT12=
EXTT13=
EXTT14=
EXTT15=
EXTT16=
PLAYORDER=
